<svg xmlns="http://www.w3.org/2000/svg" version="1.1" xmlns:xlink="http://www.w3.org/1999/xlink" xmlns:svgjs="http://svgjs.dev/svgjs" width="1000" height="999" viewBox="0 0 1000 999"><g transform="matrix(1,0,0,1,-0.215743440233382,-0.21552769679306039)"><svg viewBox="0 0 343 343" data-background-color="#ffffff" preserveAspectRatio="xMidYMid meet" height="999" width="1000" xmlns="http://www.w3.org/2000/svg" xmlns:xlink="http://www.w3.org/1999/xlink"><g id="tight-bounds" transform="matrix(1,0,0,1,0.0740000000000407,0.07400000000001228)"><svg viewBox="0 0 342.85155851775386 342.85155851775386" height="342.85155851775386" width="342.85155851775386"><g><svg></svg></g><g><svg viewBox="0 0 342.85155851775386 342.85155851775386" height="342.85155851775386" width="342.85155851775386"><g><path d="M0 171.426c0-94.676 76.75-171.426 171.426-171.426 94.676 0 171.426 76.75 171.426 171.426 0 94.676-76.75 171.426-171.426 171.426-94.676 0-171.426-76.75-171.426-171.426zM171.426 336.979c91.433 0 165.554-74.121 165.553-165.553 0-91.433-74.121-165.554-165.553-165.554-91.433 0-165.554 74.121-165.554 165.554 0 91.433 74.121 165.554 165.554 165.553z" data-fill-palette-color="tertiary" fill="#8d021f" stroke="transparent"></path><ellipse rx="164.56874808852186" ry="164.56874808852186" cx="171.42577925887693" cy="171.42577925887693" fill="#8d021f" stroke="transparent" stroke-width="0" fill-opacity="1" data-fill-palette-color="tertiary"></ellipse></g><g transform="matrix(1,0,0,1,64.84655864529837,111.88700073312138)"><svg viewBox="0 0 213.1584412271571 119.07755705151109" height="119.07755705151109" width="213.1584412271571"><g><svg viewBox="0 0 213.1584412271571 119.07755705151109" height="119.07755705151109" width="213.1584412271571"><g><svg viewBox="0 0 213.1584412271571 119.07755705151109" height="119.07755705151109" width="213.1584412271571"><g><svg viewBox="0 0 213.1584412271571 119.07755705151109" height="119.07755705151109" width="213.1584412271571"><g id="textblocktransform"><svg viewBox="0 0 213.1584412271571 119.07755705151109" height="119.07755705151109" width="213.1584412271571" id="textblock"><g><svg viewBox="0 0 213.1584412271571 119.07755705151109" height="119.07755705151109" width="213.1584412271571"><g transform="matrix(1,0,0,1,0,0)"><svg width="213.1584412271571" viewBox="-1.4 -41.05 78.60000000000001 44.349999999999994" height="119.07755705151109" data-palette-color="#ffffff"><path d="M2.1-27.05L2.1-27.05Q2.1-31.8 6.3-34.93 10.5-38.05 17.4-38.05L17.4-38.05Q21.05-38.05 23.95-37.33 26.85-36.6 28.55-35.5 30.25-34.4 31.4-32.95L31.4-32.95Q33.3-30.45 33.27-27.38 33.25-24.3 30.85-21.9 28.45-19.5 25.05-19.4L25.05-19.4Q29.3-19.1 32.43-16.6 35.55-14.1 35.55-10.3L35.55-10.3Q35.55-5.3 31.7-2.5 27.85 0.3 22.33 0.3 16.8 0.3 14.8-1.15L14.8-1.15 16.35-5.35Q18.55-4.2 21.48-4.2 24.4-4.2 26.25-5.93 28.1-7.65 28.1-10.5 28.1-13.35 25.58-15.3 23.05-17.25 18.7-17.25L18.7-17.25 19.15-20.95Q22.15-20.95 24.23-22.38 26.3-23.8 26.38-26.65 26.45-29.5 23.8-31.45L23.8-31.45Q20.95-33.5 16-33.5L16-33.5Q12.75-33.5 9.65-31.83 6.55-30.15 6.55-27.35L6.55-27.35Q6.55-26 7.65-25.08 8.75-24.15 10.55-23.95L10.55-23.95 10-20.25Q6.2-20.4 4.15-22.4 2.1-24.4 2.1-27.05ZM16.4-9.6Q15.6-4.25 13.3-2.02 11 0.2 7.9 0.2 4.8 0.2 3.2-1.4 1.6-3 1.6-5.5L1.6-5.5Q1.6-11.4 10.55-15.55L10.55-15.55Q10.8-17.65 11.28-21.23 11.75-24.8 12.03-27 12.3-29.2 12.4-29.9L12.4-29.9Q14.45-31.2 17.15-31.2L17.15-31.2Q18.4-31.2 19.55-30.95L19.55-30.95 16.4-9.6ZM5.3-6.15L5.3-6.15Q5.3-4.35 7-4.35L7-4.35Q7.7-4.35 8.47-5.28 9.25-6.2 9.55-8.2L9.55-8.2 10-11.3Q5.3-8.65 5.3-6.15ZM72.6-10.75L72.6-10.75 74.2-8.3Q73.45-5.6 72.15-3.75 70.85-1.9 69.4-1.1L69.4-1.1Q66.85 0.3 64.55 0.3L64.55 0.3Q60.55 0.3 58.62-2.02 56.7-4.35 56.6-8.25L56.6-8.25Q56.45-14.55 55.85-16.1 55.25-17.65 53.1-17.85L53.1-17.85 53.45-21.6Q54.35-21.75 54.85-22 55.35-22.25 56.15-23L56.15-23Q57.85-24.5 58.65-30.05L58.65-30.05Q59.3-34.25 61.32-36.15 63.35-38.05 65.7-38.05 68.05-38.05 69.85-36.68 71.65-35.3 71.65-32.25L71.65-32.25Q71.65-28.2 68.72-25.25 65.8-22.3 60.6-19.9L60.6-19.9Q62.4-19.05 63.25-17.05 64.1-15.05 64.2-12.85 64.3-10.65 64.35-8.6L64.35-8.6Q64.55-3.8 67.2-3.8L67.2-3.8Q70.3-3.8 72.6-10.75ZM41.45 0.3L41.45 0.3Q38.8 0.3 37.2-1.3 35.6-2.9 35.6-5.4L35.6-5.4Q35.6-11.25 44.45-15.45L44.45-15.45Q44.8-18.4 45.45-23.8L45.45-23.8Q46.7-34.9 46.95-36.7L46.95-36.7Q49-38 51.22-38 53.45-38 54.6-37.75L54.6-37.75 50.9-9.5Q49.4 0.3 41.45 0.3ZM68.15-31.1Q68.15-31.85 67.72-32.25 67.3-32.65 66.9-32.65 66.5-32.65 66.27-32.55 66.05-32.45 65.87-32.23 65.7-32 65.6-31.78 65.5-31.55 65.37-31.1 65.25-30.65 65.17-30.33 65.1-30 64.95-29.4 64.8-28.8 64.55-27.78 64.3-26.75 63.95-25.7L63.95-25.7Q68.15-28.4 68.15-31.1L68.15-31.1ZM39.3-6.05L39.3-6.05Q39.3-4.25 41-4.25L41-4.25Q41.7-4.25 42.47-5.18 43.25-6.1 43.55-8.1L43.55-8.1 43.95-11.2Q39.3-8.5 39.3-6.05Z" opacity="1" transform="matrix(1,0,0,1,0,0)" fill="#ffffff" class="undefined-text-0" data-fill-palette-color="quaternary" id="text-0"></path></svg></g></svg></g></svg></g></svg></g></svg></g></svg></g></svg></g></svg></g><defs></defs></svg><rect width="342.85155851775386" height="342.85155851775386" fill="none" stroke="none" visibility="hidden"></rect></g></svg></g></svg>